<?xml version="1.0" encoding="UTF-8" standalone="no"?>
<!DOCTYPE svg PUBLIC "-//W3C//DTD SVG 1.1//EN" "http://www.w3.org/Graphics/SVG/1.1/DTD/svg11.dtd">
<svg width="100%" height="100%" viewBox="0 0 200 200" version="1.1" xmlns="http://www.w3.org/2000/svg" xmlns:xlink="http://www.w3.org/1999/xlink" xml:space="preserve" xmlns:serif="http://www.serif.com/" style="fill-rule:evenodd;clip-rule:evenodd;stroke-linejoin:round;stroke-miterlimit:2;">
    <rect id="Tavola-da-disegno1" serif:id="Tavola da disegno1" x="0" y="0" width="200" height="200" style="fill:none;"/>
    <clipPath id="_clip1">
        <rect id="Tavola-da-disegno11" serif:id="Tavola da disegno1" x="0" y="0" width="200" height="200"/>
    </clipPath>
    <g clip-path="url(#_clip1)">
        <g transform="matrix(1.7094,0,0,1.7094,-23.0769,-20.5128)">
            <path d="M118.5,129L91.5,129C87.357,129 84,125.643 84,121.5L84,94.5C84,91.185 81.315,88.5 78,88.5L66,88.5C62.685,88.5 60,91.185 60,94.5L60,121.5C60,125.643 56.643,129 52.5,129L25.5,129C21.357,129 18,125.643 18,121.5L18,64.239C18,57.342 21.162,50.826 26.577,46.56L69.213,12.963C70.848,11.679 73.152,11.679 74.784,12.963L117.426,46.56C122.841,50.826 126,57.339 126,64.233L126,121.5C126,125.643 122.643,129 118.5,129Z" style="fill-rule:nonzero;"/>
        </g>
    </g>
</svg>
