<?xml version="1.0" encoding="UTF-8" standalone="no"?>
<!DOCTYPE svg PUBLIC "-//W3C//DTD SVG 1.1//EN" "http://www.w3.org/Graphics/SVG/1.1/DTD/svg11.dtd">
<svg width="100%" height="100%" viewBox="0 0 200 200" version="1.1" xmlns="http://www.w3.org/2000/svg" xmlns:xlink="http://www.w3.org/1999/xlink" xml:space="preserve" xmlns:serif="http://www.serif.com/" style="fill-rule:evenodd;clip-rule:evenodd;stroke-linejoin:round;stroke-miterlimit:2;">
    <rect id="Tavola-da-disegno1" serif:id="Tavola da disegno1" x="0" y="0" width="200" height="200" style="fill:none;"/>
    <clipPath id="_clip1">
        <rect id="Tavola-da-disegno11" serif:id="Tavola da disegno1" x="0" y="0" width="200" height="200"/>
    </clipPath>
    <g clip-path="url(#_clip1)">
        <g transform="matrix(0.436047,0,0,0.436047,-11.6279,-11.6288)">
            <path d="M26.667,106.667C26.667,74.266 52.933,48 85.333,48L426.667,48C459.068,48 485.333,74.266 485.333,106.667L485.333,320C485.333,352.401 459.068,378.667 426.667,378.667L304.555,378.667L331.221,432L342.667,432C351.503,432 358.667,439.164 358.667,448C358.667,456.836 351.503,464 342.667,464L321.679,464C321.589,464.002 321.5,464.002 321.41,464.004C321.278,464.004 321.143,464.002 321.011,464L190.988,464C190.766,464.004 190.543,464.004 190.32,464L169.333,464C160.497,464 153.333,456.836 153.333,448C153.333,439.164 160.497,432 169.333,432L180.778,432L207.445,378.667L85.333,378.667C52.933,378.667 26.667,352.401 26.667,320L26.667,106.667ZM453.333,282.667L58.667,282.667L58.667,106.667C58.667,91.939 70.606,80 85.333,80L426.667,80C441.395,80 453.333,91.939 453.333,106.667L453.333,282.667Z" style="fill:white;"/>
        </g>
    </g>
</svg>
