<?xml version="1.0" encoding="UTF-8" standalone="no"?>
<!DOCTYPE svg PUBLIC "-//W3C//DTD SVG 1.1//EN" "http://www.w3.org/Graphics/SVG/1.1/DTD/svg11.dtd">
<svg width="100%" height="100%" viewBox="0 0 200 200" version="1.1" xmlns="http://www.w3.org/2000/svg" xmlns:xlink="http://www.w3.org/1999/xlink" xml:space="preserve" xmlns:serif="http://www.serif.com/" style="fill-rule:evenodd;clip-rule:evenodd;stroke-linejoin:round;stroke-miterlimit:2;">
    <rect id="Tavola-da-disegno1" serif:id="Tavola da disegno1" x="0" y="0" width="200" height="200" style="fill:none;"/>
    <clipPath id="_clip1">
        <rect id="Tavola-da-disegno11" serif:id="Tavola da disegno1" x="0" y="0" width="200" height="200"/>
    </clipPath>
    <g clip-path="url(#_clip1)">
        <g transform="matrix(0.390626,0,0,0.781648,-627.737,-252.583)">
            <g transform="matrix(1,0,0,0.499746,1607,323.142)">
                <path d="M320,0L302.687,17.313C292.959,27.04 284.863,38.274 278.71,50.578L260.415,87.166L424.833,251.584L461.421,233.289C473.725,227.136 484.957,219.039 494.686,209.312L511.999,191.999C512,191.999 320,0 320,0Z" style="fill-rule:nonzero;"/>
            </g>
            <g transform="matrix(1,0,0,0.499746,1607,323.142)">
                <path d="M213.218,130.469C149.771,170.657 96,160 96,160L0,512L352,416C352,416 341.343,362.229 381.531,298.782C381.531,298.78 213.218,130.469 213.218,130.469ZM176,384C149.491,384 128,362.509 128,336C128,309.491 149.491,288 176,288C202.509,288 224,309.491 224,336C224,362.509 202.509,384 176,384Z" style="fill-rule:nonzero;"/>
            </g>
        </g>
    </g>
</svg>
