<?xml version="1.0" encoding="UTF-8" standalone="no"?>
<!DOCTYPE svg PUBLIC "-//W3C//DTD SVG 1.1//EN" "http://www.w3.org/Graphics/SVG/1.1/DTD/svg11.dtd">
<svg width="100%" height="100%" viewBox="0 0 200 200" version="1.1" xmlns="http://www.w3.org/2000/svg" xmlns:xlink="http://www.w3.org/1999/xlink" xml:space="preserve" xmlns:serif="http://www.serif.com/" style="fill-rule:evenodd;clip-rule:evenodd;stroke-linejoin:round;stroke-miterlimit:2;">
    <rect id="Tavola-da-disegno1" serif:id="Tavola da disegno1" x="0" y="0" width="200" height="200" style="fill:none;"/>
    <g id="Tavola-da-disegno11" serif:id="Tavola da disegno1">
        <g transform="matrix(0.390625,0,0,0.390625,0.130463,0)">
            <path d="M207.668,416C157.684,416 117,375.316 117,325.332L117,106.668L79.668,106.668C47.305,106.668 21,132.969 21,165.332L21,453.332C21,485.695 47.305,512 79.668,512L346.332,512C378.695,512 405,485.695 405,453.332L405,416L207.668,416Z" style="fill-rule:nonzero;"/>
            <path d="M490.332,58.668C490.332,26.262 464.07,0 431.668,0L207.668,0C175.262,0 149,26.262 149,58.668L149,325.332C149,357.738 175.262,384 207.668,384L431.668,384C464.07,384 490.332,357.738 490.332,325.332L490.332,58.668Z" style="fill-rule:nonzero;"/>
        </g>
    </g>
</svg>
